<svg width="16" height="18" viewBox="0 0 16 18" fill="none" xmlns="http://www.w3.org/2000/svg">
<g id="Group">
<path id="Vector" d="M8.07101 15.0026C7.24893 14.9251 6.43607 14.7054 5.66302 14.3448C3.89261 13.5188 2.55475 12.0583 1.89592 10.2325M8.07101 15.0026L1.74976 9.78271C1.79326 9.93292 1.84244 10.0843 1.89592 10.2325M8.07101 15.0026L8.24348 14.7798C7.3961 14.7186 6.55715 14.5017 5.76281 14.1311L5.76279 14.1311C5.76277 14.1311 5.76274 14.1311 5.76272 14.1311C4.05252 13.3331 2.7553 11.919 2.11785 10.1526L2.1178 10.1525M8.07101 15.0026L2.1178 10.1525M1.89592 10.2325L2.1178 10.1525M1.89592 10.2325L2.1178 10.1525L2.11778 10.1524C2.0661 10.0091 2.01857 9.86285 1.97638 9.71731L1.97637 9.71727C1.97635 9.71721 1.97633 9.71716 1.97632 9.7171C1.97632 9.7171 1.97631 9.71709 1.97631 9.71708C1.86889 9.34636 1.8059 8.97274 1.78695 8.60128L1.7207 7.30216L1.8868 7.38733L1.90154 7.32502C1.99412 6.93387 2.13922 6.55659 2.33494 6.2001C2.37543 6.12633 2.41809 6.05346 2.46291 5.98154L2.1178 10.1525M2.60144 9.97809C3.19206 11.6147 4.38929 12.9229 5.98011 13.6651L2.60142 9.97803C2.60143 9.97805 2.60143 9.97807 2.60144 9.97809ZM5.98012 13.6651C5.98015 13.6651 5.98018 13.6651 5.9802 13.6652C6.86484 14.0778 7.80396 14.2841 8.74198 14.2841L5.98012 13.6651ZM8.74198 14.7978C8.72798 14.7978 8.71398 14.7977 8.69999 14.7976L8.74198 14.8301V14.7978ZM8.74199 14.8302L8.99895 15.0291L9.01218 15.3974L9.18551 15.1735L9.50934 14.7552C9.33669 14.7744 9.16363 14.7871 8.99049 14.7933C8.90767 14.7963 8.82482 14.7978 8.74199 14.7978L8.74199 14.8302ZM8.74201 14.2841C8.81652 14.2841 8.8929 14.2824 8.97204 14.2796L9.90349 14.2461L9.96061 14.1723L10.219 14.1114C10.4728 14.0515 10.7242 13.9765 10.972 13.8857C12.6163 13.2829 13.9209 12.0778 14.6514 10.4871L14.4375 10.3889L14.6514 10.4871C14.6514 10.4871 14.6514 10.4871 14.6514 10.487L14.6514 10.487C14.6849 10.414 14.7171 10.3406 14.7478 10.2668C14.6918 10.2866 14.6348 10.3052 14.577 10.3226L14.5767 10.3226C14.5359 10.3349 14.4947 10.345 14.4533 10.3529C14.4479 10.3649 14.4425 10.3768 14.437 10.3887C13.7336 11.9205 12.4742 13.0839 10.8908 13.6643L8.74201 14.2841ZM14.0784 8.66075L14.0782 8.66007L14.0784 8.66075ZM15.1186 10.7017C14.3317 12.4152 12.9199 13.7193 11.149 14.3685C10.8815 14.4665 10.6104 14.5477 10.3371 14.6121C10.31 14.6185 10.2829 14.6247 10.2558 14.6308L10.2046 14.6969L9.592 15.4882L9.45532 15.6648C9.54226 15.6763 9.62636 15.6969 9.70666 15.7255L10.3912 14.8414C10.6735 14.7748 10.9536 14.6912 11.2301 14.5899C13.062 13.9183 14.5191 12.5724 15.333 10.8L15.1186 10.7017ZM9.78084 16.8548L9.77455 16.863L9.28964 16.4875L9.18151 16.4038V16.0184L8.99496 16.2594L8.70051 16.6397H9.18151H9.28964C9.25102 16.6397 9.21438 16.6483 9.18151 16.6635C9.09358 16.7044 9.03261 16.7934 9.03261 16.8968C9.03261 17.0001 9.09358 17.0892 9.18151 17.13C9.21438 17.1453 9.25102 17.1538 9.28964 17.1538H9.18151H8.30252H7.93467H7.65236H7.1328C7.27477 17.1538 7.38983 17.0387 7.38983 16.8968C7.38983 16.7548 7.27474 16.6397 7.1328 16.6397H7.93467H8.05035L8.1212 16.5482L8.58847 15.9447L8.71284 15.784C8.61503 15.7837 8.51725 15.7815 8.41955 15.7775L7.93467 16.4038H7.1328C6.86052 16.4038 6.63983 16.6246 6.63983 16.8968C6.63983 17.1691 6.86052 17.3897 7.1328 17.3897H9.28964C9.56188 17.3897 9.78261 17.1691 9.78261 16.8968C9.78261 16.8826 9.78201 16.8687 9.78084 16.8548ZM2.08238 1.10783L2.0826 1.10783L2.08238 1.10783ZM5.09128 2.07682L5.09124 2.07684L5.09128 2.07682Z" fill="#9C9CA4" stroke="#9C9CA4" stroke-width="1.5"/>
<path id="Vector_2" d="M3.24386 3.2864C3.24377 3.28631 3.24367 3.28622 3.24359 3.28613L3.24386 3.2864ZM3.24386 3.2864C3.24395 3.2865 3.24405 3.28659 3.24415 3.28669C3.24421 3.28676 3.24428 3.28683 3.24434 3.28689C3.29426 3.33728 3.31948 3.40118 3.31948 3.4684C3.31948 3.53625 3.29383 3.60035 3.24434 3.6503M3.24386 3.2864L3.24301 3.65164M3.24434 3.6503C3.24428 3.65037 3.24421 3.65043 3.24415 3.6505C3.24377 3.65088 3.24339 3.65126 3.24301 3.65164M3.24434 3.6503L3.06264 3.4686L3.24434 3.6503ZM3.24301 3.65164C3.24311 3.65153 3.24322 3.65143 3.24332 3.65132L3.24301 3.28555C3.1941 3.23722 3.13066 3.21136 3.06244 3.21136C2.99369 3.21136 2.92979 3.23763 2.88074 3.28669L3.06169 3.46765L2.88073 3.28669C2.88067 3.28676 2.8806 3.28682 2.88054 3.28689C2.88042 3.28701 2.8803 3.28713 2.88018 3.28725C2.8314 3.3363 2.8054 3.39946 2.8054 3.4684C2.8054 3.53797 2.83185 3.60133 2.88018 3.64994C2.8803 3.65006 2.88042 3.65018 2.88054 3.6503C2.8806 3.65037 2.88067 3.65043 2.88074 3.6505C2.92979 3.69956 2.99369 3.72583 3.06244 3.72583C3.13066 3.72583 3.1941 3.69997 3.24301 3.65164Z" fill="#9C9CA4" stroke="#9C9CA4" stroke-width="1.5"/>
</g>
</svg>
