<svg width="24" height="24" viewBox="0 0 24 24" fill="none" xmlns="http://www.w3.org/2000/svg">
<g id="diamond (1)">
<path id="Vector" d="M0 7.68513L12.062 7.14893L24 7.68513L12 21.6935L0 7.68513Z" fill="#FFB04C"/>
<path id="Vector_2" d="M24 7.68503H0L3.83034 2.30664H20.1697L24 7.68503Z" fill="#FFDB6C"/>
<path id="Vector_3" d="M20.1699 2.30664V7.68503H24.0003L20.1699 2.30664Z" fill="#FFC866"/>
<path id="Vector_4" d="M20.1483 7.72176L12 21.6934L23.8953 7.80726C23.9364 7.75921 23.9024 7.68506 23.8391 7.68506H20.2122C20.1859 7.68506 20.1615 7.69903 20.1483 7.72176Z" fill="#F7A05E"/>
<path id="Vector_5" d="M3.83008 2.30664H20.1694L11.9997 21.6934L3.83008 2.30664Z" fill="#FFDB6C"/>
<path id="Vector_6" d="M17.9029 7.68503L20.1694 2.30664H3.83008L6.09653 7.68503H17.9029Z" fill="#FFF2BB"/>
<path id="Vector_7" d="M6.09668 7.68503L11.9999 2.30664L17.9031 7.68503H6.09668Z" fill="#FFEB8A"/>
</g>
</svg>
