<svg width="20" height="21" viewBox="0 0 20 21" fill="none" xmlns="http://www.w3.org/2000/svg">
<g id="vuesax/bold/document-text">
<g id="document-text">
<path id="Vector" d="M13.3333 2.16675H6.66667C3.75 2.16675 2.5 3.83341 2.5 6.33342V14.6667C2.5 17.1667 3.75 18.8334 6.66667 18.8334H13.3333C16.25 18.8334 17.5 17.1667 17.5 14.6667V6.33342C17.5 3.83341 16.25 2.16675 13.3333 2.16675ZM6.66667 10.7084H10C10.3417 10.7084 10.625 10.9917 10.625 11.3334C10.625 11.6751 10.3417 11.9584 10 11.9584H6.66667C6.325 11.9584 6.04167 11.6751 6.04167 11.3334C6.04167 10.9917 6.325 10.7084 6.66667 10.7084ZM13.3333 15.2917H6.66667C6.325 15.2917 6.04167 15.0084 6.04167 14.6667C6.04167 14.3251 6.325 14.0417 6.66667 14.0417H13.3333C13.675 14.0417 13.9583 14.3251 13.9583 14.6667C13.9583 15.0084 13.675 15.2917 13.3333 15.2917ZM15.4167 8.20842H13.75C12.4833 8.20842 11.4583 7.18341 11.4583 5.91675V4.25008C11.4583 3.90841 11.7417 3.62508 12.0833 3.62508C12.425 3.62508 12.7083 3.90841 12.7083 4.25008V5.91675C12.7083 6.49175 13.175 6.95842 13.75 6.95842H15.4167C15.7583 6.95842 16.0417 7.24175 16.0417 7.58342C16.0417 7.92508 15.7583 8.20842 15.4167 8.20842Z" fill="#70D44B"/>
</g>
</g>
</svg>
